# xmcd
#
# Track frame offsets:
#	150
#	17972
#	31287
#	45637
#	61422
#	73412
#	87590
#	106465
#	122587
#	135450
#	145127
#	159912
#	172410
#	183140
#	198922
#	215990
#	229265
#	244457
#	264767
#	279727
#	295265
#	311070
#
# Disc length: 4384
#
# Revision: 3
# Processed by: cddbd v1.5.1PL0 Copyright (c) Steve Scherf et al.
# Submitted via: CDex 1.30
# Normalized: r1:TDELIM( - );r2:TSWAP
#
DISCID=58111e16
DTITLE=Country - New Country Vol 2
DYEAR=2001
DGENRE=Country
TTITLE0=Kim Richey - Those Words We Said
TTITLE1=Ronna Reeves - That's All Right With Me
TTITLE2=Twiter Alley - Nothing In Common But Love
TTITLE3=Kathy Mattea - Walking Away A Winner
TTITLE4=John and Audrey Wiggins - String Of Bad Love
TTITLE5=Terri Clark - Better Things To Do
TTITLE6=Billy Ray Cyrus - Harper Valley P.T.A
TTITLE7=Keith Stegall - Roll The Dice
TTITLE8=The Kentucky HeadHunters - Dumas Walker
TTITLE9=Wesley Dennis - This Hat Isn't No Act
TTITLE10=Mark Wills - High Low And In Between
TTITLE11=Sammy Kershaw - Haunted Heart
TTITLE12=Tom T'Hall - Little Bitty
TTITLE13=Wesley Dennis - I Don't Know (But I've Been Told)
TTITLE14=The Kentucky HeadHunters - Honky Tonk Walkin'
TTITLE15=John and Audrey Wiggins - Falling Out Of Love
TTITLE16=Kathy Mattea - Eighteen Wheels And A Dozen Roses
TTITLE17=Kim Richey - Just Like The Moon
TTITLE18=Sammy Kershaw - Vidalia
TTITLE19=Billy Ray Cyrus - She's Not Cryin' Anymore
TTITLE20=Mark Willis - What's Not To Love
TTITLE21=Tom T'Hall - Sky Blue True
EXTD=\nYEAR: 2001  ID3G:   2
EXTT0=
EXTT1=
EXTT2=
EXTT3=
EXTT4=
EXTT5=
EXTT6=
EXTT7=
EXTT8=
EXTT9=
EXTT10=
EXTT11=
EXTT12=
EXTT13=
EXTT14=
EXTT15=
EXTT16=
EXTT17=
EXTT18=
EXTT19=
EXTT20=
EXTT21=
PLAYORDER=
